<svg xmlns="http://www.w3.org/2000/svg" xmlns:xlink="http://www.w3.org/1999/xlink" version="1.1" x="0" y="0" width="104.97" height="14" viewBox="0 0 104.97 14" enable-background="new 0 0 104.965 14" xml:space="preserve"><path d="M96.97 8.61c0 1.03-0.05 3.05-0.05 3.12l-0.07 0.07 -1.95-1.22V5.79c0.31-0.47 0.73-0.7 1.1-0.7 0.45 0 0.77 0.33 0.94 0.77C96.94 6.05 96.97 7.29 96.97 8.61M103.39 6.66l-1.81 1.48V4.79L103.39 6.66zM98.61 10.91c-0.12-1.06-0.09-3.92-0.09-5.25 0-0.87-0.75-1.5-1.69-1.9l-1.92 1.62V1.85c0-0.58 0.35-1.22 0.77-1.22V0.52c-0.91 0-1.92 0.73-2.09 1.2 -0.21-0.35-0.7-0.56-1.17-0.56l-0.02 0.19c0.47 0 0.91 0.8 0.91 2.21 0 2.84-0.02 5.56-0.02 6.73 0 0.38-0.05 0.63-0.26 0.94l2.89 1.76C97.01 11.94 97.44 11.63 98.61 10.91M104.97 10.46l-0.14-0.14c-0.73 0.73-1.15 1.03-1.57 1.03 -0.42 0-0.82-0.26-1.66-0.91V8.51l3.31-2.65c-0.77-0.66-2.37-2.25-2.37-2.25 -0.89 0.8-1.41 1.24-2.65 2.11 0.05 0.26 0.1 0.61 0.1 0.89v3.73c0 0.26-0.02 0.45-0.12 0.75l2.6 1.83L104.97 10.46zM74.13 8.98c0 0.63-0.19 1.03-0.61 1.36 -0.96-0.94-1.43-2.25-1.43-3.56 0-1.97 0.68-2.72 1.62-3.4 0.14-0.12 0.28-0.21 0.42-0.3V8.98zM76.66 11.68c-1.24-0.09-2.2-0.52-2.95-1.15 1.15-0.8 1.88-1.19 1.88-2.42V2.04l0.35-0.28c0.26 0.09 0.47 0.19 0.73 0.28L76.66 11.68 76.66 11.68zM80.32 8.91c0 0.68-0.07 1.15-0.26 1.71 -0.68 0.68-1.69 1.08-2.84 1.08h-0.33V5.68c0.21-0.02 0.4-0.05 0.59-0.05C79.17 5.63 80.32 7.15 80.32 8.91M79.4 3.35l-2.51 2.23V2.13C77.79 2.49 78.58 2.91 79.4 3.35M90.24 11.56l-0.14 0.09 -1.99-1.27V4.79l2.11 1.03L90.24 11.56zM81.89 1.34l-0.21-0.19L80.9 1.97c0 0-1.99-0.66-3.61-1.59 -2.23 1.69-3.92 2.88-6.1 4.43 -0.52 0.77-0.8 1.78-0.8 2.88 0 3 2.77 5.35 6.26 5.35 2.27-0.96 3.9-2.3 5.09-3.91 0.07-0.33 0.09-0.8 0.09-1.06 0-2.18-1.48-3.4-3.05-3.77L81.89 1.34zM91.97 4.97l-2.81-1.45c-0.87 0.8-1.71 1.38-2.84 1.95 0.07 0.21 0.14 1.08 0.14 1.62v3.87c-0.26 0.28-0.52 0.42-0.77 0.42 -0.26 0-0.54-0.12-0.89-0.37V1.62c0-0.54 0.33-1.17 0.75-1.17v-0.07c-0.87 0-1.64 0.4-1.87 1.05 -0.21-0.35-0.54-0.66-1.03-0.66l-0.02 0.09c0.28 0 0.56 0.8 0.56 1.55v7.53c0 0.73-0.09 1.1-0.37 1.5l1.88 1.36 1.76-1.52 2.72 1.64c1.03-0.96 1.64-1.52 2.79-2.2 -0.07-0.35-0.09-1.03-0.09-1.31V6.08C91.86 5.51 91.88 5.21 91.97 4.97M47.44 11.75c-0.68-0.61-1.62-1.12-3.12-1.12l2.3-2.44 0.8 0.7L47.44 11.75zM48.21 6.1L46.25 8.23l-0.87-0.63V4.76C46.27 5.37 46.78 5.7 48.21 6.1M57.9 11.8l-0.09 0.07 -1.88-1.15V4.86l1.97 1.17V11.8zM59.73 10.93c-0.09-0.3-0.12-0.61-0.12-0.89V5.11l-2.56-1.43c-0.82 0.82-1.76 1.41-2.95 2.06 0.07 0.23 0.12 0.61 0.12 0.87v4.15c-0.38 0.4-0.75 0.63-1.08 0.63 -0.33 0-0.66-0.14-1.01-0.52 0-0.33 0.02-3.89 0.02-6.07h1.83V4.36l-1.83-0.07c0 0 0.02-1.71 0.05-2.06h-0.21l-2.56 2.7c-1.1-0.16-1.92-0.56-3.12-1.38 -0.94 0.96-1.57 1.41-2.7 1.95 0.05 0.56 0.07 0.87 0.07 1.43 0 0.66 0 0.87-0.05 1.43l1.5 1.05 -1.41 1.48c-0.61 0.63-0.84 1.15-0.84 1.66 0 0.47 0.19 0.85 0.47 1.2l0.17-0.09c-0.19-0.28-0.3-0.61-0.3-0.91 0-0.49 0.26-0.91 0.99-0.91 0.73 0 1.53 0.47 2.32 1.1 0.89-0.82 1.55-1.36 2.53-1.85V8.68c0-0.28 0.02-0.4 0.1-0.59l-1.5-1.01 1.92-2.09h0.89c0 2.13-0.02 4.88-0.02 5.18 0 0.38-0.07 0.85-0.33 1.22l2.13 1.57 1.83-1.66 2.65 1.73C57.76 12.08 58.58 11.44 59.73 10.93M68.24 11.26l-0.16-0.19 -0.8 0.68c-0.4 0-0.68-0.28-0.68-0.73 0-0.4 0.02-5.04 0.05-5.84 -0.31-0.61-0.7-1.08-1.6-1.38L62.92 5.37c0-0.66-0.37-1.24-1.1-1.62l-1.24 1.06 0.66 0.7c0 0-0.02 4.13-0.02 4.81 0 0.68-0.49 1.17-0.49 1.17l1.95 1.43 1.03-1.27 -0.77-0.7V5.79c0.38-0.49 0.77-0.7 1.13-0.7 0.4 0 0.73 0.28 0.82 0.68 0.02 0.31 0.02 0.8 0.02 1.31 0 0.8 0 3.61-0.02 4.71 0.14 0.49 0.87 1.17 1.34 1.17L68.24 11.26zM33.91 7.76l-0.05 3.38c-0.35 0.19-0.58 0.31-0.91 0.54 -0.26-0.16-0.51-0.33-0.82-0.52V6.8L33.91 7.76zM34.17 4.83c0 0.52-0.47 0.77-2.04 1.76V5.09c0-0.75 0.05-1.17 0.07-1.48H31.87c0.05 0.33 0.07 0.73 0.07 1.48v5.98c-0.98-0.59-2.18-1.2-3.45-1.29 1.2-0.68 2.39-1.59 2.39-2.93v-2.93c0-0.94 0.38-1.5 1.36-2.35 0.77 1.15 1.08 1.64 1.69 2.67C34.07 4.48 34.17 4.71 34.17 4.83M40.8 11.75L40.71 11.82l-1.85-1.13V4.76l1.95 1.1L40.8 11.75 40.8 11.75zM31.1 1.17l-0.05-0.14c-0.98 0-1.52-0.12-2.04-0.21 -0.49-0.07-0.91-0.16-1.5-0.16 -1.55 0-2.56 0.8-2.56 2.09 0 0.54 0.12 0.84 0.47 1.24l0.14-0.14c-0.19-0.23-0.28-0.47-0.28-0.73 0-0.56 0.47-1.05 1.5-1.05 0.77 0 1.48 0.14 2.09 0.28 -1.31 0.96-2.11 1.67-2.11 3.71 -0.19-0.07-0.45-0.12-0.8-0.12 -0.98 0-1.5 0.66-1.5 1.29 0 0.28 0.07 0.59 0.26 0.8l0.16-0.09c-0.07-0.14-0.12-0.28-0.12-0.42 0-0.42 0.33-0.75 0.94-0.75 0.54 0 0.94 0.24 1.13 0.56 0 1.43-0.28 2.16-1.03 2.16v0.16c1.13 0 2.49-0.82 2.49-2.13V4.88C28.28 2.72 29.55 1.71 31.1 1.17M36 7.11L33.91 5.72c0.8-0.49 1.06-0.63 1.34-0.84 0.49-0.35 0.63-0.56 0.63-0.77 0-0.16-0.07-0.47-0.44-1.03 -0.47-0.7-0.91-1.38-1.85-2.7 -1.31 0.89-2.04 1.43-3.42 2.51 -0.56 0.45-0.98 1.15-0.98 2.04 0 0.31 0.02 1.88 0.02 2.91 0 0.8-0.14 1.22-0.98 1.92 -2.04 0-3.26 1.31-3.26 2.63 0 0.56 0.19 1.15 0.61 1.62l0.14-0.14c-0.26-0.28-0.47-0.73-0.47-1.24 0-0.7 0.52-1.48 2.13-1.48 1.78 0 3.45 1.22 4.41 1.81 1.38-1.17 2.25-1.66 4.03-2.25V7.72C35.81 7.51 35.88 7.29 36 7.11M42.7 5.07l-2.7-1.48c-0.82 0.82-1.88 1.48-3.07 2.13 0.16 0.49 0.12 1.13 0.12 1.92 0 1.95 0.02 3-0.33 3.52l2.98 1.83c0.82-0.85 1.71-1.5 2.91-2.16 -0.09-0.3-0.12-0.61-0.12-0.89V6.61C42.49 5.63 42.59 5.28 42.7 5.07M3.35 8.73c0 0.7-0.12 1.13-0.49 1.45C1.99 9.29 1.52 8.02 1.52 6.59c0-0.8 0.14-1.41 0.42-1.83 0.47-0.42 1.03-0.82 1.41-1.03v1.81V8.73zM6.03 11.68c-1.17-0.14-2.18-0.59-2.93-1.27 1.45-1.06 1.78-1.66 1.78-2.84V2.81l0.05-0.05c0.47 0.05 0.73 0.07 1.1 0.09V11.68zM20.1 6.68l-1.9 1.52V4.93l0.07-0.07L20.1 6.68zM21.58 10.46l-0.14-0.14c-0.75 0.8-1.08 1.01-1.64 1.01 -0.42 0-0.91-0.26-1.59-0.89V8.51l3.38-2.58 -2.3-2.27c-1.01 0.8-1.17 0.94-1.9 1.5 -0.4 0.3-0.63 0.45-0.89 0.56 0.05 0.28 0.09 0.68 0.09 0.96v4.29c-0.4 0.38-0.77 0.54-1.05 0.54 -0.38 0-0.66-0.23-0.66-0.63V5.14c-0.23-0.73-0.68-1.2-1.55-1.5L11.19 5.37V1.34c0-0.58 0.33-1.12 0.63-1.27V0c-0.87 0-1.48 0.56-1.73 1.22L9.71 0.45 9.57 0.47v10.32c-0.84 0.44-1.76 0.94-2.77 0.94 -0.19 0-0.35 0-0.54-0.02V2.89c0.45 0.05 0.73 0.07 0.99 0.07 0.4 0 0.66-0.07 0.84-0.16l1.15-2.35L9.05 0.4C8.61 1.29 8.37 1.43 7.41 1.43c-0.44 0-1.43-0.12-2.42-0.23 -0.94-0.12-1.9-0.23-2.39-0.23 -1.45 0-2.3 1.01-2.3 2.04 0 0.42 0.14 0.84 0.42 1.22l0.16-0.12C0.7 3.87 0.59 3.56 0.59 3.31c0-0.42 0.33-0.8 1.22-0.8 0.35 0 1.6 0.12 2.77 0.21 -1.34 0.66-2.44 1.36-3.73 2.35C0.28 5.82 0 6.78 0 7.76c0 2.53 1.92 5.27 6.17 5.27C7.41 12.34 9.24 11.28 9.24 11.28l1.69 1.52 1.17-1.15 -0.91-0.96v-4.9c0.4-0.54 0.84-0.77 1.2-0.77 0.4 0 0.77 0.28 0.87 0.8v5.89c0.14 0.49 0.73 0.96 1.31 1.13l2.09-1.57 2.42 1.66L21.58 10.46z"/></svg>