<?xml version="1.0" encoding="utf-8"?>
<!-- Generator: Adobe Illustrator 16.0.0, SVG Export Plug-In . SVG Version: 6.00 Build 0)  -->
<!DOCTYPE svg PUBLIC "-//W3C//DTD SVG 1.1//EN" "http://www.w3.org/Graphics/SVG/1.1/DTD/svg11.dtd">
<svg version="1.1" id="Layer_1" xmlns="http://www.w3.org/2000/svg" xmlns:xlink="http://www.w3.org/1999/xlink" x="0px" y="0px"
	 width="104.965px" height="14px" viewBox="0 0 104.965 14" enable-background="new 0 0 104.965 14" xml:space="preserve">
<g>
	<path d="M96.968,8.607c0,1.031-0.047,3.048-0.047,3.117l-0.069,0.069l-1.947-1.218V5.793c0.306-0.469,0.728-0.704,1.103-0.704
		c0.445,0,0.772,0.328,0.938,0.774C96.943,6.051,96.968,7.294,96.968,8.607 M103.393,6.661l-1.806,1.478V4.785L103.393,6.661z
		 M98.609,10.905c-0.117-1.056-0.094-3.917-0.094-5.253c0-0.867-0.75-1.501-1.688-1.899l-1.923,1.618V1.853
		c0-0.585,0.352-1.219,0.772-1.219V0.516c-0.913,0-1.922,0.728-2.087,1.197c-0.21-0.352-0.703-0.563-1.172-0.563l-0.023,0.188
		c0.47,0,0.914,0.798,0.914,2.206c0,2.836-0.021,5.558-0.021,6.729c0,0.375-0.048,0.634-0.26,0.938l2.886,1.758
		C97.014,11.938,97.436,11.633,98.609,10.905 M104.965,10.46l-0.142-0.142c-0.728,0.728-1.149,1.031-1.571,1.031
		c-0.423,0-0.82-0.258-1.665-0.914V8.514l3.308-2.649c-0.774-0.657-2.369-2.251-2.369-2.251c-0.892,0.798-1.406,1.243-2.649,2.111
		c0.047,0.258,0.095,0.609,0.095,0.891v3.729c0,0.258-0.023,0.445-0.119,0.75l2.604,1.828L104.965,10.46z M74.127,8.982
		c0,0.633-0.188,1.031-0.609,1.359c-0.961-0.939-1.431-2.252-1.431-3.565c0-1.969,0.679-2.72,1.618-3.4
		c0.141-0.117,0.281-0.211,0.422-0.305V8.982z M76.66,11.68c-1.242-0.095-2.204-0.517-2.954-1.148
		c1.147-0.799,1.875-1.195,1.875-2.417V2.041l0.353-0.28c0.258,0.093,0.469,0.188,0.728,0.28L76.66,11.68L76.66,11.68z
		 M80.318,8.911c0,0.682-0.07,1.149-0.258,1.714c-0.681,0.68-1.689,1.077-2.838,1.077h-0.328V5.676
		c0.211-0.023,0.398-0.047,0.586-0.047C79.169,5.629,80.318,7.153,80.318,8.911 M79.402,3.354l-2.508,2.228V2.135
		C77.786,2.487,78.583,2.909,79.402,3.354 M90.236,11.562l-0.139,0.093l-1.994-1.267V4.785l2.11,1.031L90.236,11.562z M81.891,1.337
		l-0.213-0.188L80.904,1.97c0,0-1.993-0.657-3.61-1.594c-2.229,1.688-3.916,2.884-6.099,4.432c-0.516,0.773-0.797,1.782-0.797,2.883
		c0,3.002,2.768,5.347,6.262,5.347c2.273-0.96,3.895-2.298,5.089-3.915c0.069-0.328,0.094-0.798,0.094-1.057
		c0-2.181-1.477-3.399-3.049-3.774L81.891,1.337z M91.973,4.972l-2.813-1.453c-0.867,0.796-1.712,1.382-2.837,1.945
		c0.068,0.212,0.141,1.08,0.141,1.619v3.869c-0.258,0.28-0.518,0.423-0.773,0.423c-0.258,0-0.541-0.118-0.893-0.375V1.619
		c0-0.54,0.328-1.173,0.75-1.173v-0.07c-0.867,0-1.643,0.398-1.875,1.054c-0.213-0.352-0.54-0.656-1.031-0.656l-0.024,0.094
		c0.282,0,0.563,0.797,0.563,1.547v7.528c0,0.728-0.095,1.103-0.375,1.5l1.875,1.361l1.758-1.524l2.722,1.641
		c1.032-0.961,1.643-1.522,2.791-2.203c-0.07-0.353-0.095-1.032-0.095-1.313V6.075C91.855,5.511,91.879,5.207,91.973,4.972
		 M47.441,11.749c-0.681-0.61-1.619-1.124-3.119-1.124l2.298-2.439l0.797,0.703L47.441,11.749z M48.214,6.098L46.245,8.23
		l-0.868-0.633V4.761C46.269,5.371,46.784,5.699,48.214,6.098 M57.898,11.795l-0.092,0.072l-1.877-1.149V4.855l1.969,1.172V11.795z
		 M59.729,10.928c-0.094-0.303-0.117-0.609-0.117-0.89V5.113l-2.557-1.431c-0.82,0.821-1.76,1.407-2.955,2.064
		c0.07,0.234,0.118,0.609,0.118,0.867v4.151c-0.376,0.398-0.751,0.633-1.079,0.633c-0.329,0-0.656-0.141-1.009-0.516
		c0-0.328,0.023-3.893,0.023-6.073h1.83V4.362l-1.83-0.07c0,0,0.023-1.712,0.047-2.064h-0.21l-2.557,2.697
		c-1.102-0.164-1.922-0.563-3.119-1.383c-0.938,0.96-1.571,1.406-2.696,1.945c0.046,0.563,0.069,0.868,0.069,1.431
		c0,0.657,0,0.868-0.046,1.432l1.5,1.053l-1.407,1.479c-0.609,0.634-0.844,1.148-0.844,1.664c0,0.47,0.188,0.845,0.469,1.196
		l0.165-0.094c-0.188-0.281-0.305-0.61-0.305-0.914c0-0.492,0.258-0.914,0.985-0.914c0.728,0,1.525,0.468,2.322,1.101
		c0.891-0.819,1.548-1.358,2.532-1.851V8.678c0-0.281,0.024-0.398,0.095-0.587l-1.502-1.008l1.924-2.088h0.891
		c0,2.134-0.023,4.878-0.023,5.183c0,0.377-0.07,0.846-0.328,1.221l2.134,1.569l1.829-1.663l2.65,1.733
		C57.759,12.078,58.58,11.443,59.729,10.928 M68.241,11.257l-0.163-0.187l-0.799,0.679c-0.398,0-0.68-0.281-0.68-0.728
		c0-0.396,0.023-5.042,0.047-5.838c-0.306-0.611-0.705-1.079-1.596-1.384L62.917,5.37c0-0.656-0.375-1.243-1.103-1.618l-1.242,1.056
		l0.656,0.703c0,0-0.023,4.128-0.023,4.808c0,0.682-0.492,1.174-0.492,1.174l1.946,1.429l1.032-1.266l-0.774-0.703V5.793
		c0.375-0.492,0.774-0.704,1.127-0.704c0.397,0,0.726,0.281,0.82,0.681c0.022,0.305,0.022,0.797,0.022,1.313
		c0,0.797,0,3.61-0.022,4.712c0.14,0.493,0.866,1.173,1.337,1.173L68.241,11.257z M33.909,7.764l-0.047,3.375
		c-0.351,0.188-0.585,0.307-0.915,0.541c-0.257-0.164-0.515-0.328-0.82-0.517V6.801L33.909,7.764z M34.167,4.832
		c0,0.515-0.469,0.774-2.04,1.759V5.089c0-0.75,0.047-1.172,0.07-1.478H31.87c0.047,0.328,0.07,0.727,0.07,1.478v5.981
		c-0.985-0.588-2.181-1.197-3.448-1.29c1.197-0.681,2.392-1.595,2.392-2.933v-2.93c0-0.938,0.375-1.501,1.36-2.345
		c0.773,1.149,1.079,1.641,1.688,2.673C34.074,4.479,34.167,4.714,34.167,4.832 M40.804,11.749L40.71,11.82l-1.853-1.127V4.761
		l1.946,1.102L40.804,11.749L40.804,11.749z M31.096,1.173l-0.047-0.141c-0.985,0-1.524-0.118-2.041-0.211
		c-0.492-0.07-0.915-0.164-1.5-0.164c-1.548,0-2.556,0.797-2.556,2.087c0,0.54,0.117,0.844,0.469,1.243l0.141-0.141
		c-0.188-0.235-0.281-0.469-0.281-0.728c0-0.562,0.469-1.055,1.5-1.055c0.774,0,1.478,0.141,2.087,0.281
		c-1.313,0.961-2.111,1.665-2.111,3.705c-0.187-0.07-0.446-0.117-0.797-0.117c-0.985,0-1.5,0.656-1.5,1.289
		c0,0.282,0.07,0.587,0.258,0.798l0.164-0.094c-0.07-0.142-0.117-0.281-0.117-0.423c0-0.422,0.328-0.751,0.938-0.751
		c0.54,0,0.938,0.235,1.125,0.563c0,1.431-0.281,2.158-1.031,2.158v0.163c1.125,0,2.485-0.819,2.485-2.134V4.878
		C28.282,2.721,29.547,1.713,31.096,1.173 M35.997,7.106L33.91,5.723c0.797-0.492,1.056-0.633,1.337-0.844
		c0.493-0.352,0.633-0.563,0.633-0.774c0-0.165-0.07-0.469-0.445-1.032c-0.469-0.704-0.915-1.384-1.853-2.696
		c-1.313,0.891-2.04,1.429-3.424,2.509c-0.563,0.445-0.985,1.149-0.985,2.04c0,0.305,0.024,1.876,0.024,2.908
		c0,0.797-0.141,1.221-0.985,1.923c-2.04,0-3.259,1.313-3.259,2.627c0,0.562,0.188,1.149,0.609,1.617l0.141-0.142
		c-0.258-0.281-0.469-0.727-0.469-1.241c0-0.704,0.516-1.479,2.134-1.479c1.782,0,3.447,1.221,4.408,1.807
		c1.384-1.172,2.251-1.664,4.034-2.252V7.716C35.809,7.505,35.879,7.294,35.997,7.106 M42.704,5.066l-2.697-1.478
		c-0.821,0.821-1.876,1.478-3.072,2.134c0.164,0.493,0.117,1.125,0.117,1.922c0,1.947,0.023,3.002-0.328,3.519l2.978,1.829
		c0.821-0.846,1.712-1.5,2.908-2.157c-0.094-0.305-0.118-0.608-0.118-0.892V6.613C42.492,5.629,42.586,5.277,42.704,5.066
		 M3.354,8.725c0,0.703-0.117,1.127-0.492,1.453C1.994,9.287,1.524,8.021,1.524,6.59c0-0.797,0.141-1.407,0.422-1.829
		c0.47-0.422,1.033-0.821,1.408-1.032v1.806V8.725z M6.027,11.68c-1.172-0.142-2.181-0.587-2.932-1.267
		c1.454-1.056,1.782-1.665,1.782-2.838V2.814l0.047-0.047c0.469,0.047,0.728,0.07,1.103,0.094V11.68z M20.097,6.684l-1.899,1.524
		V4.925l0.07-0.07L20.097,6.684z M21.575,10.46l-0.141-0.142c-0.75,0.799-1.079,1.009-1.642,1.009c-0.422,0-0.915-0.257-1.594-0.892
		V8.514l3.376-2.58l-2.298-2.275c-1.009,0.797-1.173,0.938-1.9,1.501c-0.398,0.304-0.633,0.445-0.891,0.562
		c0.047,0.281,0.094,0.68,0.094,0.961v4.292c-0.398,0.375-0.774,0.541-1.055,0.541c-0.376,0-0.657-0.235-0.657-0.635V5.136
		c-0.234-0.727-0.68-1.196-1.547-1.501L11.186,5.37V1.337c0-0.585,0.329-1.125,0.633-1.266V0c-0.868,0-1.478,0.563-1.735,1.22
		L9.709,0.446L9.568,0.47v10.318c-0.844,0.444-1.758,0.938-2.767,0.938c-0.187,0-0.352,0-0.54-0.023V2.885
		c0.446,0.046,0.728,0.07,0.985,0.07c0.398,0,0.657-0.07,0.844-0.164l1.15-2.345L9.052,0.399C8.606,1.291,8.373,1.431,7.411,1.431
		c-0.445,0-1.431-0.117-2.416-0.234c-0.938-0.118-1.9-0.235-2.392-0.235c-1.454,0-2.298,1.009-2.298,2.041
		c0,0.421,0.14,0.844,0.422,1.219l0.164-0.117C0.704,3.87,0.586,3.564,0.586,3.307c0-0.421,0.328-0.796,1.219-0.796
		c0.352,0,1.595,0.118,2.767,0.21c-1.336,0.657-2.438,1.36-3.728,2.345C0.282,5.816,0,6.777,0,7.764
		c0,2.531,1.923,5.274,6.168,5.274C7.411,12.335,9.24,11.28,9.24,11.28l1.688,1.524l1.172-1.149l-0.915-0.962v-4.9
		c0.398-0.539,0.844-0.774,1.196-0.774c0.398,0,0.773,0.282,0.868,0.797v5.886c0.141,0.493,0.727,0.961,1.313,1.125l2.087-1.57
		l2.416,1.664L21.575,10.46z"/>
</g>
</svg>
